<?xml version="1.0" encoding="UTF-8"?> <svg xmlns="http://www.w3.org/2000/svg" width="70" height="70" viewBox="0 0 70 70" fill="none"><g clip-path="url(#clip0_1_1148)"><circle cx="57.2103" cy="9.67651" r="3.61413" transform="rotate(-45 57.2103 9.67651)" stroke="#2E3141" stroke-width="1.75754"></circle><path d="M54.5199 12.0975L47.9292 18.6882" stroke="#2E3141" stroke-width="1.75754" stroke-linecap="round" stroke-linejoin="round"></path><circle r="3.61413" transform="matrix(0.707107 0.707107 0.707107 -0.707107 57.2103 60.3975)" stroke="#2E3141" stroke-width="1.75754"></circle><path d="M54.5209 57.9764L47.9302 51.3857" stroke="#2E3141" stroke-width="1.75754" stroke-linecap="round" stroke-linejoin="round"></path><circle r="3.61413" transform="matrix(-0.707107 -0.707107 -0.707107 0.707107 14.0983 9.67676)" stroke="#2E3141" stroke-width="1.75754"></circle><path d="M16.7882 12.0978L23.3789 18.6885" stroke="#2E3141" stroke-width="1.75754" stroke-linecap="round" stroke-linejoin="round"></path><circle cx="14.0983" cy="60.3977" r="3.61413" transform="rotate(135 14.0983 60.3977)" stroke="#2E3141" stroke-width="1.75754"></circle><path d="M16.7882 57.9762L23.3789 51.3855" stroke="#2E3141" stroke-width="1.75754" stroke-linecap="round" stroke-linejoin="round"></path><circle cx="35.4261" cy="4.7555" r="3.61413" transform="rotate(-90 35.4261 4.7555)" stroke="#2E3141" stroke-width="1.75754"></circle><path d="M35.2363 8.36978L35.2363 17.6904" stroke="#2E3141" stroke-width="1.75754" stroke-linecap="round" stroke-linejoin="round"></path><circle r="3.61413" transform="matrix(-4.37114e-08 1 1 4.37114e-08 35.4261 65.3185)" stroke="#2E3141" stroke-width="1.75754"></circle><path d="M35.2363 61.7044L35.2363 52.3838" stroke="#2E3141" stroke-width="1.75754" stroke-linecap="round" stroke-linejoin="round"></path><circle cx="61.8666" cy="35.1903" r="3.61413" stroke="#2E3141" stroke-width="1.75754"></circle><path d="M58.2523 35H48.9316" stroke="#2E3141" stroke-width="1.75754" stroke-linecap="round" stroke-linejoin="round"></path><circle r="3.61413" transform="matrix(-1 0 0 1 8.03528 35.1903)" stroke="#2E3141" stroke-width="1.75754"></circle><path d="M11.6496 35H20.9702" stroke="#2E3141" stroke-width="1.75754" stroke-linecap="round" stroke-linejoin="round"></path><path d="M25.7256 23.9673C25.7256 23.1269 26.4069 22.4456 27.2473 22.4456H35.0462C40.1939 22.4456 44.3669 26.6186 44.3669 31.7662V46.0325C44.3669 46.8729 43.6856 47.5543 42.8452 47.5543H27.2473C26.4069 47.5543 25.7256 46.8729 25.7256 46.0325V23.9673Z" stroke="#2E3141" stroke-width="1.75754"></path><path d="M35.6993 22.6358L35.6994 29.9024C35.6994 30.7429 36.3807 31.4242 37.2212 31.4242L44.1769 31.424" stroke="#2E3141" stroke-width="1.75754" stroke-linecap="round"></path><path d="M30.4806 36.5217H39.8013" stroke="#2E3141" stroke-width="1.75754" stroke-linecap="round" stroke-linejoin="round"></path><path d="M33.3343 40.3262H37.1387" stroke="#2E3141" stroke-width="1.75754" stroke-linecap="round" stroke-linejoin="round"></path></g><defs><clipPath id="clip0_1_1148"><rect width="63.5326" height="70" fill="white" transform="translate(3.27979)"></rect></clipPath></defs></svg> 