<?xml version="1.0" encoding="UTF-8"?> <svg xmlns="http://www.w3.org/2000/svg" width="70" height="70" viewBox="0 0 70 70" fill="none"><g clip-path="url(#clip0_1_1092)"><path d="M36.4912 31.7127H15.7424V24.3896" stroke="#2E3141" stroke-width="1.74359" stroke-linecap="round" stroke-linejoin="round"></path><circle cx="15.5679" cy="20.7281" r="3.31282" stroke="#2E3141" stroke-width="1.74359"></circle><circle cx="5.35896" cy="39.9075" r="3.31282" stroke="#2E3141" stroke-width="1.74359"></circle><path d="M36.9179 39.7334H9.02051" stroke="#2E3141" stroke-width="1.74359" stroke-linecap="round" stroke-linejoin="round"></path><circle cx="26.7269" cy="13.4051" r="3.31282" stroke="#2E3141" stroke-width="1.74359"></circle><circle cx="26.7269" cy="13.4051" r="3.31282" stroke="#2E3141" stroke-width="1.74359"></circle><path d="M37.0142 22.9949H26.9014V17.0667" stroke="#2E3141" stroke-width="1.74359" stroke-linecap="round" stroke-linejoin="round"></path><circle r="3.31282" transform="matrix(1 -8.74228e-08 -8.74228e-08 -1 24.1898 56.6462)" stroke="#2E3141" stroke-width="1.74359"></circle><path d="M34.4768 47.0564L24.364 47.0564L24.364 52.9846" stroke="#2E3141" stroke-width="1.74359" stroke-linecap="round" stroke-linejoin="round"></path><path d="M42.1487 47.0565C48.3116 47.0565 53.3077 42.0604 53.3077 35.8975C53.3077 29.7346 48.3116 24.7385 42.1487 24.7385" stroke="#2E3141" stroke-width="1.74359" stroke-linecap="round" stroke-linejoin="round"></path><path d="M37.6155 60.6564H46.9163C47.8947 60.6564 48.6879 59.8596 48.6879 58.8767V58.0199C48.6879 57.2248 49.2155 56.533 49.9625 56.27C50.6376 56.0322 51.2981 55.7632 51.9422 55.4645C52.6507 55.136 53.4956 55.2557 54.0473 55.81L54.6363 56.4016C55.3281 57.0966 56.4498 57.0966 57.1417 56.4016L63.7184 49.795C64.4102 49.1 64.4102 47.9731 63.7184 47.2781L63.2091 46.7665C62.6506 46.2055 62.5359 45.3439 62.8766 44.6281C63.1956 43.958 63.4828 43.2697 63.7363 42.5652C64.0031 41.8238 64.6875 41.3026 65.4723 41.3026H66.1824C67.1608 41.3026 67.9539 40.5058 67.9539 39.5229V30.1797C67.9539 29.1968 67.1608 28.4 66.1824 28.4H65.4723C64.6875 28.4 64.0031 27.8787 63.7363 27.1373C63.4828 26.4329 63.1957 25.7446 62.8767 25.0746C62.536 24.3588 62.6507 23.4972 63.2091 22.9362L63.7185 22.4245C64.4103 21.7295 64.4103 20.6027 63.7185 19.9077L57.1418 13.301C56.45 12.606 55.3282 12.606 54.6364 13.301L54.0475 13.8926C53.4957 14.4469 52.6508 14.5666 51.9424 14.2381C51.2982 13.9394 50.6377 13.6703 49.9625 13.4326C49.2155 13.1695 48.6879 12.4778 48.6879 11.6827V10.8258C48.6879 9.84293 47.8947 9.04614 46.9163 9.04614H37.6155" stroke="#2E3141" stroke-width="1.74359" stroke-linecap="round"></path></g><defs><clipPath id="clip0_1_1092"><rect width="68" height="53.7026" fill="white" transform="translate(1 8)"></rect></clipPath></defs></svg> 