<?xml version="1.0" encoding="UTF-8"?> <svg xmlns="http://www.w3.org/2000/svg" width="70" height="70" viewBox="0 0 70 70" fill="none"><path d="M22.4763 26.4258C21.7846 25.8658 21.7846 24.8109 22.4763 24.251L34.1813 14.7756C34.6947 14.3601 35.4286 14.3601 35.9419 14.7757L47.6448 24.2511C48.3363 24.811 48.3363 25.8658 47.6448 26.4257L35.9419 35.9011C35.4286 36.3167 34.6947 36.3167 34.1813 35.9012L22.4763 26.4258Z" stroke="#2E3141" stroke-width="1.68908" stroke-linecap="round" stroke-linejoin="round"></path><path d="M19.8071 33.9585L34.8283 46.4786C35.3472 46.9111 36.1009 46.9111 36.6197 46.4786L51.6409 33.9585" stroke="#2E3141" stroke-width="1.68908" stroke-linecap="round" stroke-linejoin="round"></path><path d="M19.8071 43.2461L34.8284 55.7633C35.3472 56.1957 36.1008 56.1957 36.6196 55.7633L51.6409 43.2461" stroke="#2E3141" stroke-width="1.68908" stroke-linecap="round" stroke-linejoin="round"></path><path d="M48.9116 14.1626L60.1036 2.9707" stroke="#2E3141" stroke-width="1.68908" stroke-linecap="round" stroke-linejoin="round"></path><path d="M52.9663 2.12598H59.5255C60.2981 2.12598 60.9245 2.75233 60.9245 3.52497V10.0842" stroke="#2E3141" stroke-width="1.68908" stroke-linecap="round" stroke-linejoin="round"></path><path d="M21.1427 14.0508L9.93311 2.7716" stroke="#2E3141" stroke-width="1.68908" stroke-linecap="round" stroke-linejoin="round"></path><path d="M9.12598 10.1565L9.12635 3.59551C9.12639 2.82287 9.75277 2.19656 10.5254 2.1966L17.0837 2.19689" stroke="#2E3141" stroke-width="1.68908" stroke-linecap="round" stroke-linejoin="round"></path><path d="M48.9116 55.0833L59.9287 66.1003" stroke="#2E3141" stroke-width="1.68908" stroke-linecap="round" stroke-linejoin="round"></path><path d="M52.9663 67.1196H59.5255C60.2981 67.1196 60.9245 66.4933 60.9245 65.7206V59.1614" stroke="#2E3141" stroke-width="1.68908" stroke-linecap="round" stroke-linejoin="round"></path><path d="M21.1426 55.1951L9.93311 66.4741" stroke="#2E3141" stroke-width="1.68908" stroke-linecap="round" stroke-linejoin="round"></path><path d="M9.12598 59.0894L9.12635 65.6503C9.12639 66.423 9.75277 67.0493 10.5254 67.0493L17.0837 67.049" stroke="#2E3141" stroke-width="1.68908" stroke-linecap="round" stroke-linejoin="round"></path></svg> 